REM DIRINDEX 1\8,1\2\11,1\3\12,1\3\14,1\5\15,1\5\16,1\6\17,1\6\18,1\4\19,1\4\20,1\4\21,1\4\22,1\7\23,1\7\24,1\7\25,1\2\9\26,1\2\9\27,1\2\10\28,1\2\10\29,1\2\10\30,1\2\10\31,1\2\10\32,1\3\13\33,1\3\13\34,1\3\13\35
REM DIRNAME cjc123,folder01,folder02,folder03,folder04,folder05,folder06,folder07,folder08,folder09,folder10,folder11,folder12,folder13,folder14,folder15,folder16,folder17,folder18,folder19,folder20,folder21,folder22,folder23,folder24,folder25,folder26,folder27,folder28,folder29,folder30,folder31,folder32,folder33,folder34
TITLE ""
FILE "153 153_例文UNIT6_SET1.mp3" MP3
  TRACK 01 AUDIO
    TITLE "22:cjc123_4015"
    INDEX 01 00:00:00
  TRACK 02 AUDIO
    TITLE "0:"
    INDEX 01 00:02:59
  TRACK 03 AUDIO
    TITLE "19:cjc123_4016"
    INDEX 01 00:03:41
  TRACK 04 AUDIO
    TITLE "0:"
    INDEX 01 00:07:58
  TRACK 05 AUDIO
    TITLE "20:cjc123_4017"
    INDEX 01 00:08:17
  TRACK 06 AUDIO
    TITLE "0:"
    INDEX 01 00:12:26
  TRACK 07 AUDIO
    TITLE "21:cjc123_4018"
    INDEX 01 00:12:54
  TRACK 08 AUDIO
    TITLE "0:"
    INDEX 01 00:16:73
  TRACK 09 AUDIO
    TITLE "19:cjc123_4019"
    INDEX 01 00:17:53
  TRACK 10 AUDIO
    TITLE "0:"
    INDEX 01 00:22:05
  TRACK 11 AUDIO
    TITLE "20:cjc123_4020"
    INDEX 01 00:22:50
  TRACK 12 AUDIO
    TITLE "0:"
    INDEX 01 00:26:38
  TRACK 13 AUDIO
    TITLE "21:cjc123_4021"
    INDEX 01 00:26:67
  TRACK 14 AUDIO
    TITLE "0:"
    INDEX 01 00:31:20
  TRACK 15 AUDIO
    TITLE "19:cjc123_4022"
    INDEX 01 00:32:03
  TRACK 16 AUDIO
    TITLE "0:"
    INDEX 01 00:35:41
  TRACK 17 AUDIO
    TITLE "20:cjc123_4023"
    INDEX 01 00:36:03
  TRACK 18 AUDIO
    TITLE "0:"
    INDEX 01 00:39:52
  TRACK 19 AUDIO
    TITLE "21:cjc123_4024"
    INDEX 01 00:40:11
  TRACK 20 AUDIO
    TITLE "0:"
    INDEX 01 00:43:50
  TRACK 21 AUDIO
    TITLE "19:cjc123_4025"
    INDEX 01 00:44:46
  TRACK 22 AUDIO
    TITLE "0:"
    INDEX 01 00:48:61
  TRACK 23 AUDIO
    TITLE "20:cjc123_4026"
    INDEX 01 00:49:21
  TRACK 24 AUDIO
    TITLE "0:"
    INDEX 01 00:53:53
  TRACK 25 AUDIO
    TITLE "21:cjc123_4027"
    INDEX 01 00:54:23
  TRACK 26 AUDIO
    TITLE "0:"
    INDEX 01 00:58:38
  TRACK 27 AUDIO
    TITLE "19:cjc123_4028"
    INDEX 01 00:59:20
  TRACK 28 AUDIO
    TITLE "0:"
    INDEX 01 01:03:71
  TRACK 29 AUDIO
    TITLE "20:cjc123_4029"
    INDEX 01 01:04:15
  TRACK 30 AUDIO
    TITLE "0:"
    INDEX 01 01:09:32
  TRACK 31 AUDIO
    TITLE "21:cjc123_4030"
    INDEX 01 01:09:67
  TRACK 32 AUDIO
    TITLE "0:"
    INDEX 01 01:14:41
  TRACK 33 AUDIO
    TITLE "19:cjc123_4031"
    INDEX 01 01:15:01
  TRACK 34 AUDIO
    TITLE "0:"
    INDEX 01 01:19:40
  TRACK 35 AUDIO
    TITLE "20:cjc123_4032"
    INDEX 01 01:20:00
  TRACK 36 AUDIO
    TITLE "0:"
    INDEX 01 01:24:14
  TRACK 37 AUDIO
    TITLE "21:cjc123_4033"
    INDEX 01 01:24:41
  TRACK 38 AUDIO
    TITLE "0:"
    INDEX 01 01:29:05
  TRACK 39 AUDIO
    TITLE "19:cjc123_4034"
    INDEX 01 01:29:56
  TRACK 40 AUDIO
    TITLE "0:"
    INDEX 01 01:34:71
  TRACK 41 AUDIO
    TITLE "20:cjc123_4035"
    INDEX 01 01:35:37
  TRACK 42 AUDIO
    TITLE "0:"
    INDEX 01 01:40:64
  TRACK 43 AUDIO
    TITLE "21:cjc123_4036"
    INDEX 01 01:41:16
  TRACK 44 AUDIO
    TITLE "0:"
    INDEX 01 01:46:31
  TRACK 45 AUDIO
    TITLE "19:cjc123_4037"
    INDEX 01 01:47:13
  TRACK 46 AUDIO
    TITLE "0:"
    INDEX 01 01:52:08
  TRACK 47 AUDIO
    TITLE "20:cjc123_4038"
    INDEX 01 01:52:38
  TRACK 48 AUDIO
    TITLE "0:"
    INDEX 01 01:57:43
  TRACK 49 AUDIO
    TITLE "21:cjc123_4039"
    INDEX 01 01:58:01
  TRACK 50 AUDIO
    TITLE "0:"
    INDEX 01 02:02:71
  TRACK 51 AUDIO
    TITLE "19:cjc123_4040"
    INDEX 01 02:03:43
  TRACK 52 AUDIO
    TITLE "0:"
    INDEX 01 02:08:29
  TRACK 53 AUDIO
    TITLE "20:cjc123_4041"
    INDEX 01 02:08:56
  TRACK 54 AUDIO
    TITLE "0:"
    INDEX 01 02:13:50
  TRACK 55 AUDIO
    TITLE "21:cjc123_4042"
    INDEX 01 02:14:00
  TRACK 56 AUDIO
    TITLE "0:"
    INDEX 01 02:18:63
  TRACK 57 AUDIO
    TITLE "19:cjc123_4043"
    INDEX 01 02:19:37
  TRACK 58 AUDIO
    TITLE "0:"
    INDEX 01 02:23:38
  TRACK 59 AUDIO
    TITLE "20:cjc123_4044"
    INDEX 01 02:24:02
  TRACK 60 AUDIO
    TITLE "0:"
    INDEX 01 02:27:56
  TRACK 61 AUDIO
    TITLE "21:cjc123_4045"
    INDEX 01 02:28:10
  TRACK 62 AUDIO
    TITLE "0:"
    INDEX 01 02:32:10
  TRACK 63 AUDIO
    TITLE "19:cjc123_4046"
    INDEX 01 02:32:71
  TRACK 64 AUDIO
    TITLE "0:"
    INDEX 01 02:38:32
  TRACK 65 AUDIO
    TITLE "20:cjc123_4047"
    INDEX 01 02:38:65
  TRACK 66 AUDIO
    TITLE "0:"
    INDEX 01 02:44:11
  TRACK 67 AUDIO
    TITLE "21:cjc123_4048"
    INDEX 01 02:44:38
  TRACK 68 AUDIO
    TITLE "0:"
    INDEX 01 02:49:71
  TRACK 69 AUDIO
    TITLE "19:cjc123_4049"
    INDEX 01 02:50:47
  TRACK 70 AUDIO
    TITLE "0:"
    INDEX 01 02:56:26
  TRACK 71 AUDIO
    TITLE "20:cjc123_4050"
    INDEX 01 02:56:57
  TRACK 72 AUDIO
    TITLE "0:"
    INDEX 01 03:01:74
  TRACK 73 AUDIO
    TITLE "21:cjc123_4051"
    INDEX 01 03:02:27
  TRACK 74 AUDIO
    TITLE "0:"
    INDEX 01 03:08:08
  TRACK 75 AUDIO
    TITLE "19:cjc123_4052"
    INDEX 01 03:08:51
  TRACK 76 AUDIO
    TITLE "0:"
    INDEX 01 03:13:38
  TRACK 77 AUDIO
    TITLE "20:cjc123_4053"
    INDEX 01 03:14:02
  TRACK 78 AUDIO
    TITLE "0:"
    INDEX 01 03:17:71
  TRACK 79 AUDIO
    TITLE "21:cjc123_4054"
    INDEX 01 03:18:26
  TRACK 80 AUDIO
    TITLE "0:"
    INDEX 01 03:23:11
  TRACK 81 AUDIO
    TITLE "19:cjc123_4055"
    INDEX 01 03:23:68
  TRACK 82 AUDIO
    TITLE "0:"
    INDEX 01 03:30:07
  TRACK 83 AUDIO
    TITLE "20:cjc123_4056"
    INDEX 01 03:30:64
  TRACK 84 AUDIO
    TITLE "0:"
    INDEX 01 03:37:31
  TRACK 85 AUDIO
    TITLE "21:cjc123_4057"
    INDEX 01 03:37:58
  TRACK 86 AUDIO
    TITLE "0:"
    INDEX 01 03:44:00
  TRACK 87 AUDIO
    TITLE "19:cjc123_4058"
    INDEX 01 03:44:72
  TRACK 88 AUDIO
    TITLE "0:"
    INDEX 01 03:49:44
  TRACK 89 AUDIO
    TITLE "20:cjc123_4059"
    INDEX 01 03:50:14
  TRACK 90 AUDIO
    TITLE "0:"
    INDEX 01 03:54:59
  TRACK 91 AUDIO
    TITLE "21:cjc123_4060"
    INDEX 01 03:55:11
  TRACK 92 AUDIO
    TITLE "0:"
    INDEX 01 03:59:56
